# xmcd CD database file
#
# Track frame offsets:
#	150
#	18869
#	44504
#	59101
#	73345
#	92952
#	114882
#	138101
#	159443
#	166220
#
# Disc length: 2443 seconds
#
# Revision: 0
# Processed by: cddbd v1.5.1PL0 Copyright (c) Steve Scherf et al.
# Submitted via: CDex 1.51
#
DISCID=8509890a
DTITLE=Kitty Winter - Gipsy Nova
DYEAR=1900
DGENRE=Jazz
TTITLE0=Feel it
TTITLE1=Mato Pato
TTITLE2=Puerto
TTITLE3=I think of you
TTITLE4=New morning
TTITLE5=Dingo dschiglo
TTITLE6=Primrose smba
TTITLE7=Song for Paul
TTITLE8=Stars and clouds
TTITLE9=The ballad
EXTD=
EXTT0=
EXTT1=
EXTT2=
EXTT3=
EXTT4=
EXTT5=
EXTT6=
EXTT7=
EXTT8=
EXTT9=
PLAYORDER=
